Coordinates
version=1
nRows=26
nColumns=24
inDegrees=yes

Units are S.I. units (second, meters, Newtons, ...)
Angles are in degrees.

endheader
time	pelvis_tilt	pelvis_list	pelvis_rotation	pelvis_tx	pelvis_ty	pelvis_tz	hip_flexion_r	hip_adduction_r	hip_rotation_r	knee_angle_r	ankle_angle_r	subtalar_angle_r	mtp_angle_r	hip_flexion_l	hip_adduction_l	hip_rotation_l	knee_angle_l	ankle_angle_l	subtalar_angle_l	mtp_angle_l	lumbar_extension	lumbar_bending	lumbar_rotation
      1.61300000	     -0.33289837	      4.13457197	     -0.33736185	      0.43103389	      1.00080110	      0.30648796	     16.63117360	     -4.73776462	      1.70367137	    -64.51587366	      0.02498214	    -17.28039989	     -1.57589670	      8.05787061	      9.87104530	      0.77925687	    -12.55586573	      1.89419679	    -13.78386128	      1.41198845	      2.13851760	     -2.40312775	      3.61225484
      1.61716667	     -0.26165171	      4.05125976	     -0.19372960	      0.43558167	      1.00135764	      0.30605768	     17.13334830	     -4.65708999	      1.65240489	    -64.18406279	      0.59093006	    -17.42974565	     -1.62962819	      7.54076436	      9.81332500	      0.92528501	    -12.29468220	      1.96397940	    -13.64527444	      1.38946205	      2.02050037	     -2.30806621	      3.55428145
      1.62133333	     -0.11661273	      3.96594262	     -0.05762741	      0.44015163	      1.00201161	      0.30563987	     17.53064305	     -4.57253284	      1.60760477	    -63.78479423	      1.08879774	    -17.54665152	     -1.75495957	      6.91700899	      9.75554995	      1.11706012	    -11.98386324	      2.04514234	    -13.61300939	      1.33422257	      1.82006838	     -2.22391193	      3.33395971
      1.62550000	     -0.05748606	      3.85095072	      0.11309682	      0.44468271	      1.00252142	      0.30518688	     18.00691607	     -4.46255370	      1.53129738	    -63.34302012	      1.57913620	    -17.61570627	     -1.80295494	      6.42105789	      9.66122280	      1.31212376	    -11.74155792	      2.12927462	    -13.53825887	      1.31336787	      1.72728142	     -2.09021240	      3.24025979
      1.62966667	      0.02874199	      3.76446608	      0.26660648	      0.44921154	      1.00302364	      0.30475966	     18.44933592	     -4.38024218	      1.47866717	    -62.87619307	      2.06731340	    -17.66432651	     -1.85657150	      5.88572386	      9.59330703	      1.49839001	    -11.47479212	      2.22318481	    -13.47349407	      1.28960483	      1.59291970	     -1.98891646	      3.08254170
      1.63383333	      0.15437986	      3.69354447	      0.40734320	      0.45371156	      1.00355304	      0.30434098	     18.84266634	     -4.31259164	      1.44645189	    -62.37230504	      2.50470539	    -17.65051558	     -1.96129226	      5.29686103	      9.54062557	      1.70345060	    -11.17957573	      2.31361527	    -13.44065797	      1.24207430	      1.38672409	     -1.90083527	      2.81229802
      1.63800000	      0.25041048	      3.61027583	      0.56550032	      0.45823670	      1.00402305	      0.30391352	     19.24387831	     -4.23900633	      1.38797640	    -61.81586779	      2.92147064	    -17.61819425	     -2.08654814	      4.75025084	      9.46871130	      1.88897855	    -10.90720574	      2.41100730	    -13.38671028	      1.18624197	      1.25667815	     -1.80833559	      2.59460214
      1.64216667	      0.29753443	      3.52060435	      0.73623880	      0.46271403	      1.00438134	      0.30348858	     19.69379837	     -4.15698744	      1.32674685	    -61.23700856	      3.32393701	    -17.61006537	     -2.14174527	      4.28207642	      9.38463502	      2.06661009	    -10.68085365	      2.51152887	    -13.28775781	      1.16299213	      1.16569288	     -1.69720245	      2.49500909
      1.64633333	      0.37731571	      3.44435953	      0.89277489	      0.46719717	      1.00476694	      0.30308878	     20.09419905	     -4.08570026	      1.28245933	    -60.61856608	      3.70862370	    -17.56147498	     -2.20438580	      3.77030391	      9.31031860	      2.23339047	    -10.43617220	      2.62969558	    -13.19213717	      1.13671638	      1.03564934	     -1.60994305	      2.32878549
      1.65050000	      0.49373572	      3.38650718	      1.03324410	      0.47168619	      1.00517631	      0.30270383	     20.44260195	     -4.03356569	      1.25216074	    -59.96111333	      4.02704872	    -17.45867256	     -2.32663467	      3.20499716	      9.25213122	      2.39267334	    -10.15964373	      2.74844504	    -13.10432449	      1.08608691	      0.86415350	     -1.54665362	      2.06399805
      1.65466667	      0.52109897	      3.30684921	      1.20416610	      0.47613289	      1.00542740	      0.30230506	     20.87454487	     -3.96021964	      1.20163235	    -59.27481469	      4.34920945	    -17.41682178	     -2.38576527	      2.77198437	      9.16853124	      2.56024680	     -9.95278910	      2.86642504	    -13.00661316	      1.06419493	      0.79972430	     -1.45802873	      1.95692131
      1.65883333	      0.62801689	      3.26237681	      1.34100520	      0.48059973	      1.00575583	      0.30192985	     21.21298024	     -3.92404076	      1.17339016	    -58.56335100	      4.62705090	    -17.31083142	     -2.49756743	      2.22549049	      9.11842106	      2.70412761	     -9.68746800	      2.99745690	    -12.90619961	      1.02279308	      0.63434945	     -1.39906049	      1.72085839
      1.66300000	      0.64379175	      3.19455514	      1.49914525	      0.48503575	      1.00593585	      0.30155692	     21.63911548	     -3.86416477	      1.12889025	    -57.82387846	      4.87269276	    -17.27416005	     -2.54372614	      1.80080733	      9.04119367	      2.86199949	     -9.46477935	      3.11422938	    -12.79632891	      1.00892040	      0.57335228	     -1.31103358	      1.63320435
      1.66716667	      0.71690034	      3.13592795	      1.65732800	      0.48947187	      1.00617532	      0.30118025	     21.97589319	     -3.81225271	      1.09177519	    -57.03237623	      5.11044114	    -17.19595191	     -2.61585863	      1.32062266	      8.97087136	      3.01333568	     -9.25816816	      3.24841582	    -12.69991028	      0.98714573	      0.45810093	     -1.25066795	      1.44894374
      1.67133333	      0.78546032	      3.10006994	      1.79074612	      0.49391071	      1.00637212	      0.30083435	     22.31799344	     -3.78365453	      1.06984728	    -56.23204371	      5.28652385	    -17.11584022	     -2.73834956	      0.82813955	      8.92269330	      3.14984254	     -9.01013303	      3.37789490	    -12.60820801	      0.95083399	      0.33624069	     -1.21133899	      1.20796139
      1.67550000	      0.80560545	      3.04389642	      1.94739214	      0.49832195	      1.00647404	      0.30047352	     22.69483323	     -3.73638292	      1.02768864	    -55.39937211	      5.46252787	    -17.08684746	     -2.80179470	      0.41403319	      8.85175630	      3.30145094	     -8.81381189	      3.49902721	    -12.51411804	      0.93560268	      0.27548762	     -1.14125652	      1.11132586
      1.67966667	      0.86113985	      2.99651329	      2.08906972	      0.50274380	      1.00661730	      0.30012951	     23.01644149	     -3.69652330	      0.99295527	    -54.53271473	      5.59520715	    -17.05670986	     -2.87535965	     -0.05079058	      8.78690273	      3.44590050	     -8.59093926	      3.62593532	    -12.42126849	      0.91901498	      0.17146988	     -1.08053733	      0.95728768
      1.68383333	      0.89963262	      2.96011573	      2.22607609	      0.50715100	      1.00669351	      0.29979431	     23.34881864	     -3.66772413	      0.96414006	    -53.64974526	      5.70550342	    -17.03848846	     -2.95808469	     -0.49153183	      8.73336451	      3.58789378	     -8.37719927	      3.75148406	    -12.34239134	      0.90127096	      0.08663351	     -1.03606869	      0.79428111
      1.68800000	      0.91723381	      2.92527813	      2.36005614	      0.51155199	      1.00672074	      0.29946638	     23.69170960	     -3.64087490	      0.93531566	    -52.74495623	      5.78974500	    -17.03978562	     -3.03996575	     -0.90688328	      8.68122634	      3.73107523	     -8.16783032	      3.87300126	    -12.27040758	      0.88504135	      0.02446736	     -0.99168317	      0.64627983
      1.69216667	      0.94954714	      2.89153899	      2.49113930	      0.51595083	      1.00674754	      0.29915530	     24.00203676	     -3.61303981	      0.90526752	    -51.81281745	      5.85702813	    -17.05714297	     -3.12023297	     -1.33920567	      8.62678766	      3.87430933	     -7.95455356	      3.99428329	    -12.20210298	      0.86985879	     -0.05410080	     -0.94974094	      0.50486947
      1.69633333	      0.98010907	      2.86969265	      2.61551957	      0.52034471	      1.00672858	      0.29885200	     24.30777913	     -3.59987917	      0.87123947	    -50.87247361	      5.90489665	    -17.08214970	     -3.20220294	     -1.77093430	      8.58494060	      4.02101319	     -7.73913512	      4.11304229	    -12.14393450	      0.85434707	     -0.13783842	     -0.92152824	      0.36436589
      1.70050000	      0.99282594	      2.84844484	      2.73496131	      0.52473805	      1.00667293	      0.29855643	     24.61827205	     -3.58519466	      0.84250879	    -49.90855699	      5.93762599	    -17.11606394	     -3.27960183	     -2.17984683	      8.54359935	      4.16313995	     -7.52996535	      4.22752697	    -12.09543285	      0.83963630	     -0.19518164	     -0.89391652	      0.23646918
      1.70466667	      1.00572587	      2.82673132	      2.85084442	      0.52912940	      1.00659051	      0.29827232	     24.91344757	     -3.56781957	      0.81473297	    -48.92182211	      5.95391597	    -17.16815686	     -3.35725151	     -2.58849810	      8.50084892	      4.30743987	     -7.32158745	      4.34417702	    -12.05230264	      0.82427739	     -0.24883943	     -0.86285630	      0.10813181
      1.70883333	      1.01589174	      2.80473337	      2.96096037	      0.53353032	      1.00648287	      0.29801102	     25.19798981	     -3.54773500	      0.78508354	    -47.91749526	      5.95430360	    -17.23224794	     -3.43478989	     -2.99377722	      8.45539642	      4.44733958	     -7.11521306	      4.46100424	    -12.01440289	      0.80808073	     -0.30224541	     -0.83018528	     -0.01708802
      1.71300000	      1.02595909	      2.78703299	      3.06669376	      0.53791771	      1.00634363	      0.29776043	     25.47221624	     -3.53044217	      0.75508188	    -46.90018160	      5.94007735	    -17.30775094	     -3.52450953	     -3.39848406	      8.41394510	      4.59266637	     -6.90773967	      4.57473025	    -11.98545085	      0.78690136	     -0.36705057	     -0.81347974	     -0.15350444
      1.71716667	      1.01516017	      2.77359674	      3.16377905	      0.54232091	      1.00614536	      0.29752753	     25.75816294	     -3.51542064	      0.73034118	    -45.87156131	      5.93181822	    -17.37420061	     -3.60326038	     -3.77761141	      8.37736108	      4.72506824	     -6.70931669	      4.69282520	    -11.95472126	      0.76706539	     -0.38961298	     -0.78635869	     -0.26028462
